G75*
G70*
%OFA0B0*%
%FSLAX24Y24*%
%IPPOS*%
%LPD*%
%AMOC8*
5,1,8,0,0,1.08239X$1,22.5*
%
%ADD10C,0.0060*%
%ADD11C,0.0040*%
D10*
X008896Y008428D02*
X009056Y008268D01*
X009636Y007438D02*
X009636Y007028D01*
X012146Y009628D02*
X012546Y009628D01*
X009316Y011518D02*
X009316Y011918D01*
D11*
X005653Y002474D02*
X005960Y002167D01*
X005960Y002090D01*
X006113Y002167D02*
X006190Y002090D01*
X006343Y002090D01*
X006420Y002167D01*
X006420Y002474D01*
X006343Y002550D01*
X006190Y002550D01*
X006113Y002474D01*
X005960Y002550D02*
X005653Y002550D01*
X005653Y002474D01*
X005920Y005250D02*
X006074Y005250D01*
X006150Y005327D01*
X006150Y005480D02*
X005997Y005557D01*
X005920Y005557D01*
X005843Y005480D01*
X005843Y005327D01*
X005920Y005250D01*
X006150Y005480D02*
X006150Y005710D01*
X005843Y005710D01*
X006304Y005634D02*
X006304Y005480D01*
X006381Y005403D01*
X006611Y005403D01*
X006611Y005250D02*
X006611Y005710D01*
X006381Y005710D01*
X006304Y005634D01*
X006457Y005403D02*
X006304Y005250D01*
X012263Y005440D02*
X012570Y005440D01*
X012339Y005670D01*
X012339Y005210D01*
X012723Y005210D02*
X012877Y005363D01*
X012800Y005363D02*
X013030Y005363D01*
X013030Y005210D02*
X013030Y005670D01*
X012800Y005670D01*
X012723Y005594D01*
X012723Y005440D01*
X012800Y005363D01*
X012781Y004810D02*
X012704Y004734D01*
X012704Y004580D01*
X012781Y004503D01*
X013011Y004503D01*
X013011Y004350D02*
X013011Y004810D01*
X012781Y004810D01*
X012550Y004734D02*
X012474Y004810D01*
X012320Y004810D01*
X012243Y004734D01*
X012243Y004657D01*
X012550Y004350D01*
X012243Y004350D01*
X012704Y004350D02*
X012857Y004503D01*
X012933Y006157D02*
X012779Y006157D01*
X012703Y006234D01*
X012549Y006157D02*
X012242Y006157D01*
X012396Y006157D02*
X012396Y006618D01*
X012549Y006464D01*
X012703Y006541D02*
X012779Y006618D01*
X012933Y006618D01*
X013010Y006541D01*
X013010Y006234D01*
X012933Y006157D01*
X012584Y015077D02*
X012277Y015077D01*
X012200Y015154D01*
X012200Y015307D01*
X012277Y015384D01*
X012431Y015538D02*
X012431Y015844D01*
X012661Y015768D02*
X012431Y015538D01*
X012584Y015384D02*
X012661Y015307D01*
X012661Y015154D01*
X012584Y015077D01*
X012661Y015768D02*
X012200Y015768D01*
X010411Y016387D02*
X010334Y016310D01*
X010181Y016310D01*
X010104Y016387D01*
X010104Y016694D01*
X010181Y016770D01*
X010334Y016770D01*
X010411Y016694D01*
X010411Y016387D01*
X010257Y016463D02*
X010104Y016310D01*
X009950Y016387D02*
X009874Y016310D01*
X009720Y016310D01*
X009643Y016387D01*
X009643Y016463D01*
X009720Y016540D01*
X009797Y016540D01*
X009720Y016540D02*
X009643Y016617D01*
X009643Y016694D01*
X009720Y016770D01*
X009874Y016770D01*
X009950Y016694D01*
X007750Y015741D02*
X007750Y015587D01*
X007674Y015510D01*
X007674Y015357D02*
X007520Y015357D01*
X007443Y015280D01*
X007443Y015050D01*
X007290Y015050D02*
X007750Y015050D01*
X007750Y015280D01*
X007674Y015357D01*
X007520Y015664D02*
X007520Y015741D01*
X007443Y015817D01*
X007367Y015817D01*
X007290Y015741D01*
X007290Y015587D01*
X007367Y015510D01*
X007290Y015357D02*
X007443Y015203D01*
X007520Y015741D02*
X007597Y015817D01*
X007674Y015817D01*
X007750Y015741D01*
M02*
