G75*
G70*
%OFA0B0*%
%FSLAX24Y24*%
%IPPOS*%
%LPD*%
%AMOC8*
5,1,8,0,0,1.08239X$1,22.5*
%
%ADD10C,0.0000*%
%ADD11C,0.0160*%
%ADD12R,0.0580X0.0200*%
%ADD13R,0.0200X0.0580*%
%ADD14R,0.0630X0.0709*%
%ADD15R,0.0709X0.0630*%
%ADD16R,0.0640X0.0640*%
%ADD17OC8,0.0640*%
%ADD18R,0.0630X0.0710*%
%ADD19C,0.1005*%
%ADD20R,0.0710X0.0630*%
%ADD21R,0.0394X0.0551*%
%ADD22C,0.0200*%
%ADD23C,0.0238*%
%ADD24C,0.0400*%
D10*
X000180Y000140D02*
X000180Y020500D01*
X000180Y020510D01*
X019922Y020510D01*
X019922Y000140D01*
X000180Y000140D01*
D11*
X000180Y000180D02*
X019940Y000180D01*
X019940Y020500D01*
X000180Y020500D01*
X000180Y000180D01*
X010260Y011098D02*
X010266Y011098D01*
D12*
X011726Y010578D03*
X011726Y010268D03*
X011726Y009948D03*
X011726Y009638D03*
X011726Y009318D03*
X011726Y009008D03*
X011726Y008688D03*
X011726Y008378D03*
X008486Y008378D03*
X008486Y008688D03*
X008486Y009008D03*
X008486Y009318D03*
X008486Y009638D03*
X008486Y009948D03*
X008486Y010268D03*
X008486Y010578D03*
D13*
X009006Y011098D03*
X009316Y011098D03*
X009636Y011098D03*
X009946Y011098D03*
X010266Y011098D03*
X010576Y011098D03*
X010896Y011098D03*
X011206Y011098D03*
X011206Y007858D03*
X010896Y007858D03*
X010576Y007858D03*
X010266Y007858D03*
X009946Y007858D03*
X009636Y007858D03*
X009316Y007858D03*
X009006Y007858D03*
D14*
X006571Y003140D03*
X005469Y003140D03*
X013520Y006393D03*
X014622Y006393D03*
D15*
X011690Y014847D03*
X011690Y015949D03*
D16*
X014369Y012081D03*
D17*
X014369Y011081D03*
X014369Y010081D03*
X014369Y009081D03*
X014369Y008081D03*
D18*
X014660Y005460D03*
X014660Y004600D03*
X013540Y004600D03*
X013540Y005460D03*
X006580Y004660D03*
X005460Y004660D03*
D19*
X002680Y004690D03*
X002680Y001690D03*
X002680Y015690D03*
X002680Y018690D03*
X017369Y018640D03*
X017369Y015640D03*
X017369Y004640D03*
X017369Y001640D03*
D20*
X008260Y014860D03*
X008260Y015980D03*
D21*
X009646Y015733D03*
X010394Y015733D03*
X010020Y014867D03*
D22*
X010020Y014180D01*
X010180Y014180D01*
X008820Y014180D01*
X008260Y013780D02*
X008260Y014900D01*
X008260Y015980D02*
X008260Y016580D01*
X009646Y016580D01*
X009646Y015733D01*
X010394Y015733D02*
X010394Y016930D01*
X010420Y016900D02*
X006260Y016900D01*
X006260Y006980D01*
X009690Y006980D01*
X009700Y006980D02*
X009700Y006420D01*
X012900Y006420D01*
X012900Y008100D01*
X013700Y008100D01*
X014350Y008100D01*
X014369Y008081D01*
X013700Y008100D02*
X012482Y009318D01*
X011726Y009318D01*
X011220Y009318D01*
X011220Y009300D01*
X011220Y009638D01*
X008980Y009638D01*
X008980Y009060D01*
X008980Y009008D01*
X008486Y009008D01*
X007860Y009008D01*
X007220Y008980D01*
X006900Y008688D02*
X006900Y013780D01*
X008260Y013780D01*
X009300Y012020D02*
X009300Y011700D01*
X009940Y011700D01*
X010260Y011540D01*
X010260Y011098D01*
X010576Y011098D02*
X010580Y011700D01*
X009780Y012180D01*
X009006Y011860D02*
X009006Y011098D01*
X008260Y011220D02*
X007860Y011220D01*
X007860Y009940D01*
X008500Y009940D01*
X010100Y009940D01*
X010428Y010268D01*
X011726Y010268D01*
X012492Y010268D01*
X013700Y009060D01*
X014347Y009060D01*
X015300Y009060D01*
X015300Y005460D01*
X014660Y005460D01*
X014660Y004600D01*
X014660Y003940D01*
X010820Y003940D01*
X010340Y004660D02*
X013480Y004660D01*
X013540Y004600D01*
X013540Y005460D02*
X011620Y005460D01*
X012900Y006393D02*
X012900Y006420D01*
X012900Y006393D02*
X013520Y006393D01*
X013380Y007140D02*
X013380Y007460D01*
X013380Y007140D02*
X014660Y007140D01*
X014660Y006393D01*
X014622Y006393D01*
X014347Y009060D02*
X014369Y009081D01*
X012420Y009620D02*
X011726Y009620D01*
X011726Y009638D01*
X011726Y010578D02*
X010340Y010578D01*
X010300Y010580D01*
X010896Y011098D02*
X010900Y011940D01*
X010820Y012100D01*
X011260Y012100D02*
X011220Y011780D01*
X011206Y011098D01*
X009940Y009300D02*
X009940Y007858D01*
X009946Y007858D01*
X010266Y007858D02*
X010266Y007380D01*
X010260Y007380D01*
X010576Y007380D02*
X010576Y007858D01*
X010576Y007380D02*
X010580Y007380D01*
X010820Y007140D01*
X009620Y007940D02*
X009620Y008660D01*
X009316Y008980D02*
X009300Y008980D01*
X009316Y008980D02*
X009316Y007858D01*
X008486Y008688D02*
X006900Y008688D01*
X007860Y009318D02*
X008486Y009318D01*
X007860Y009318D01*
X007860Y009940D01*
X008486Y009638D02*
X008980Y009638D01*
X009006Y011860D02*
X007540Y011860D01*
X005460Y011860D02*
X005460Y011860D01*
X005460Y004660D01*
X006580Y004660D02*
X006740Y004660D01*
X006740Y003860D01*
X006580Y003140D02*
X006580Y002260D01*
X006571Y003140D02*
X006580Y003140D01*
X005469Y003140D02*
X004820Y003140D01*
X004820Y005860D01*
X008580Y005460D02*
X008580Y006500D01*
X010180Y014180D02*
X011690Y014180D01*
X011690Y014847D01*
X011690Y015949D02*
X011700Y015949D01*
X011700Y016740D01*
X015220Y016740D01*
X015220Y016020D01*
X015220Y016740D02*
X015220Y018420D01*
X015220Y018580D01*
X017369Y018580D01*
X006260Y016900D02*
X004900Y016900D01*
X004900Y018690D01*
X002680Y018690D01*
D23*
X008820Y014180D03*
X009300Y012020D03*
X009780Y012180D03*
X010820Y012100D03*
X011260Y012100D03*
X010300Y010580D03*
X009940Y009300D03*
X009620Y008660D03*
X009300Y008980D03*
X007860Y009318D03*
X007220Y008980D03*
X008260Y011220D03*
X007540Y011860D03*
X005460Y011860D03*
X010260Y007380D03*
X010820Y007140D03*
X011620Y005460D03*
X010340Y004660D03*
X010820Y003940D03*
X008580Y005460D03*
X008580Y006500D03*
X006740Y003860D03*
X006580Y002260D03*
X004820Y005860D03*
X012420Y009620D03*
X013380Y007460D03*
X015220Y016020D03*
X011700Y016740D03*
D24*
X017129Y001690D02*
X002680Y001690D01*
X017129Y001690D02*
X017369Y001640D01*
M02*
