G75*
G70*
%OFA0B0*%
%FSLAX24Y24*%
%IPPOS*%
%LPD*%
%AMOC8*
5,1,8,0,0,1.08239X$1,22.5*
%
%ADD10R,0.0660X0.0280*%
%ADD11R,0.0280X0.0660*%
%ADD12R,0.0710X0.0789*%
%ADD13R,0.0789X0.0710*%
%ADD14R,0.0720X0.0720*%
%ADD15OC8,0.0720*%
%ADD16R,0.0710X0.0790*%
%ADD17C,0.0700*%
%ADD18R,0.0790X0.0710*%
%ADD19R,0.0474X0.0631*%
%ADD20C,0.0318*%
D10*
X008486Y008378D03*
X008486Y008688D03*
X008486Y009008D03*
X008486Y009318D03*
X008486Y009638D03*
X008486Y009948D03*
X008486Y010268D03*
X008486Y010578D03*
X011726Y010578D03*
X011726Y010268D03*
X011726Y009948D03*
X011726Y009638D03*
X011726Y009318D03*
X011726Y009008D03*
X011726Y008688D03*
X011726Y008378D03*
D11*
X011206Y007858D03*
X010896Y007858D03*
X010576Y007858D03*
X010266Y007858D03*
X009946Y007858D03*
X009636Y007858D03*
X009316Y007858D03*
X009006Y007858D03*
X009006Y011098D03*
X009316Y011098D03*
X009636Y011098D03*
X009946Y011098D03*
X010266Y011098D03*
X010576Y011098D03*
X010896Y011098D03*
X011206Y011098D03*
D12*
X013520Y006393D03*
X014622Y006393D03*
X006571Y003140D03*
X005469Y003140D03*
D13*
X011690Y014847D03*
X011690Y015949D03*
D14*
X014369Y012081D03*
D15*
X014369Y011081D03*
X014369Y010081D03*
X014369Y009081D03*
X014369Y008081D03*
D16*
X014660Y005460D03*
X014660Y004600D03*
X013540Y004600D03*
X013540Y005460D03*
X006580Y004660D03*
X005460Y004660D03*
D17*
X002522Y001690D02*
X002524Y001715D01*
X002530Y001739D01*
X002539Y001762D01*
X002552Y001783D01*
X002568Y001802D01*
X002587Y001818D01*
X002608Y001831D01*
X002631Y001840D01*
X002655Y001846D01*
X002680Y001848D01*
X002705Y001846D01*
X002729Y001840D01*
X002752Y001831D01*
X002773Y001818D01*
X002792Y001802D01*
X002808Y001783D01*
X002821Y001762D01*
X002830Y001739D01*
X002836Y001715D01*
X002838Y001690D01*
X002836Y001665D01*
X002830Y001641D01*
X002821Y001618D01*
X002808Y001597D01*
X002792Y001578D01*
X002773Y001562D01*
X002752Y001549D01*
X002729Y001540D01*
X002705Y001534D01*
X002680Y001532D01*
X002655Y001534D01*
X002631Y001540D01*
X002608Y001549D01*
X002587Y001562D01*
X002568Y001578D01*
X002552Y001597D01*
X002539Y001618D01*
X002530Y001641D01*
X002524Y001665D01*
X002522Y001690D01*
X002522Y004690D02*
X002524Y004715D01*
X002530Y004739D01*
X002539Y004762D01*
X002552Y004783D01*
X002568Y004802D01*
X002587Y004818D01*
X002608Y004831D01*
X002631Y004840D01*
X002655Y004846D01*
X002680Y004848D01*
X002705Y004846D01*
X002729Y004840D01*
X002752Y004831D01*
X002773Y004818D01*
X002792Y004802D01*
X002808Y004783D01*
X002821Y004762D01*
X002830Y004739D01*
X002836Y004715D01*
X002838Y004690D01*
X002836Y004665D01*
X002830Y004641D01*
X002821Y004618D01*
X002808Y004597D01*
X002792Y004578D01*
X002773Y004562D01*
X002752Y004549D01*
X002729Y004540D01*
X002705Y004534D01*
X002680Y004532D01*
X002655Y004534D01*
X002631Y004540D01*
X002608Y004549D01*
X002587Y004562D01*
X002568Y004578D01*
X002552Y004597D01*
X002539Y004618D01*
X002530Y004641D01*
X002524Y004665D01*
X002522Y004690D01*
X002522Y015690D02*
X002524Y015715D01*
X002530Y015739D01*
X002539Y015762D01*
X002552Y015783D01*
X002568Y015802D01*
X002587Y015818D01*
X002608Y015831D01*
X002631Y015840D01*
X002655Y015846D01*
X002680Y015848D01*
X002705Y015846D01*
X002729Y015840D01*
X002752Y015831D01*
X002773Y015818D01*
X002792Y015802D01*
X002808Y015783D01*
X002821Y015762D01*
X002830Y015739D01*
X002836Y015715D01*
X002838Y015690D01*
X002836Y015665D01*
X002830Y015641D01*
X002821Y015618D01*
X002808Y015597D01*
X002792Y015578D01*
X002773Y015562D01*
X002752Y015549D01*
X002729Y015540D01*
X002705Y015534D01*
X002680Y015532D01*
X002655Y015534D01*
X002631Y015540D01*
X002608Y015549D01*
X002587Y015562D01*
X002568Y015578D01*
X002552Y015597D01*
X002539Y015618D01*
X002530Y015641D01*
X002524Y015665D01*
X002522Y015690D01*
X002522Y018690D02*
X002524Y018715D01*
X002530Y018739D01*
X002539Y018762D01*
X002552Y018783D01*
X002568Y018802D01*
X002587Y018818D01*
X002608Y018831D01*
X002631Y018840D01*
X002655Y018846D01*
X002680Y018848D01*
X002705Y018846D01*
X002729Y018840D01*
X002752Y018831D01*
X002773Y018818D01*
X002792Y018802D01*
X002808Y018783D01*
X002821Y018762D01*
X002830Y018739D01*
X002836Y018715D01*
X002838Y018690D01*
X002836Y018665D01*
X002830Y018641D01*
X002821Y018618D01*
X002808Y018597D01*
X002792Y018578D01*
X002773Y018562D01*
X002752Y018549D01*
X002729Y018540D01*
X002705Y018534D01*
X002680Y018532D01*
X002655Y018534D01*
X002631Y018540D01*
X002608Y018549D01*
X002587Y018562D01*
X002568Y018578D01*
X002552Y018597D01*
X002539Y018618D01*
X002530Y018641D01*
X002524Y018665D01*
X002522Y018690D01*
X017211Y018640D02*
X017213Y018665D01*
X017219Y018689D01*
X017228Y018712D01*
X017241Y018733D01*
X017257Y018752D01*
X017276Y018768D01*
X017297Y018781D01*
X017320Y018790D01*
X017344Y018796D01*
X017369Y018798D01*
X017394Y018796D01*
X017418Y018790D01*
X017441Y018781D01*
X017462Y018768D01*
X017481Y018752D01*
X017497Y018733D01*
X017510Y018712D01*
X017519Y018689D01*
X017525Y018665D01*
X017527Y018640D01*
X017525Y018615D01*
X017519Y018591D01*
X017510Y018568D01*
X017497Y018547D01*
X017481Y018528D01*
X017462Y018512D01*
X017441Y018499D01*
X017418Y018490D01*
X017394Y018484D01*
X017369Y018482D01*
X017344Y018484D01*
X017320Y018490D01*
X017297Y018499D01*
X017276Y018512D01*
X017257Y018528D01*
X017241Y018547D01*
X017228Y018568D01*
X017219Y018591D01*
X017213Y018615D01*
X017211Y018640D01*
X017211Y015640D02*
X017213Y015665D01*
X017219Y015689D01*
X017228Y015712D01*
X017241Y015733D01*
X017257Y015752D01*
X017276Y015768D01*
X017297Y015781D01*
X017320Y015790D01*
X017344Y015796D01*
X017369Y015798D01*
X017394Y015796D01*
X017418Y015790D01*
X017441Y015781D01*
X017462Y015768D01*
X017481Y015752D01*
X017497Y015733D01*
X017510Y015712D01*
X017519Y015689D01*
X017525Y015665D01*
X017527Y015640D01*
X017525Y015615D01*
X017519Y015591D01*
X017510Y015568D01*
X017497Y015547D01*
X017481Y015528D01*
X017462Y015512D01*
X017441Y015499D01*
X017418Y015490D01*
X017394Y015484D01*
X017369Y015482D01*
X017344Y015484D01*
X017320Y015490D01*
X017297Y015499D01*
X017276Y015512D01*
X017257Y015528D01*
X017241Y015547D01*
X017228Y015568D01*
X017219Y015591D01*
X017213Y015615D01*
X017211Y015640D01*
X017211Y004640D02*
X017213Y004665D01*
X017219Y004689D01*
X017228Y004712D01*
X017241Y004733D01*
X017257Y004752D01*
X017276Y004768D01*
X017297Y004781D01*
X017320Y004790D01*
X017344Y004796D01*
X017369Y004798D01*
X017394Y004796D01*
X017418Y004790D01*
X017441Y004781D01*
X017462Y004768D01*
X017481Y004752D01*
X017497Y004733D01*
X017510Y004712D01*
X017519Y004689D01*
X017525Y004665D01*
X017527Y004640D01*
X017525Y004615D01*
X017519Y004591D01*
X017510Y004568D01*
X017497Y004547D01*
X017481Y004528D01*
X017462Y004512D01*
X017441Y004499D01*
X017418Y004490D01*
X017394Y004484D01*
X017369Y004482D01*
X017344Y004484D01*
X017320Y004490D01*
X017297Y004499D01*
X017276Y004512D01*
X017257Y004528D01*
X017241Y004547D01*
X017228Y004568D01*
X017219Y004591D01*
X017213Y004615D01*
X017211Y004640D01*
X017211Y001640D02*
X017213Y001665D01*
X017219Y001689D01*
X017228Y001712D01*
X017241Y001733D01*
X017257Y001752D01*
X017276Y001768D01*
X017297Y001781D01*
X017320Y001790D01*
X017344Y001796D01*
X017369Y001798D01*
X017394Y001796D01*
X017418Y001790D01*
X017441Y001781D01*
X017462Y001768D01*
X017481Y001752D01*
X017497Y001733D01*
X017510Y001712D01*
X017519Y001689D01*
X017525Y001665D01*
X017527Y001640D01*
X017525Y001615D01*
X017519Y001591D01*
X017510Y001568D01*
X017497Y001547D01*
X017481Y001528D01*
X017462Y001512D01*
X017441Y001499D01*
X017418Y001490D01*
X017394Y001484D01*
X017369Y001482D01*
X017344Y001484D01*
X017320Y001490D01*
X017297Y001499D01*
X017276Y001512D01*
X017257Y001528D01*
X017241Y001547D01*
X017228Y001568D01*
X017219Y001591D01*
X017213Y001615D01*
X017211Y001640D01*
D18*
X008260Y014860D03*
X008260Y015980D03*
D19*
X009646Y015733D03*
X010394Y015733D03*
X010020Y014867D03*
D20*
X008820Y014180D03*
X009300Y012020D03*
X009780Y012180D03*
X010820Y012100D03*
X011260Y012100D03*
X010300Y010580D03*
X009940Y009300D03*
X009620Y008660D03*
X009300Y008980D03*
X007860Y009318D03*
X007220Y008980D03*
X008260Y011220D03*
X007540Y011860D03*
X005460Y011860D03*
X010260Y007380D03*
X010820Y007140D03*
X011620Y005460D03*
X010340Y004660D03*
X010820Y003940D03*
X008580Y005460D03*
X008580Y006500D03*
X006740Y003860D03*
X006580Y002260D03*
X004820Y005860D03*
X012420Y009620D03*
X013380Y007460D03*
X015220Y016020D03*
X011700Y016740D03*
M02*
