%
M48
M72
T01C0.0118
T02C0.0400
T03C0.0670
%
T01
X4820Y5860
X6740Y3860
X6580Y2260
X8580Y5460
X8580Y6500
X10260Y7380
X10820Y7140
X9620Y8660
X9300Y8980
X9940Y9300
X10300Y10580
X10820Y12100
X11260Y12100
X9780Y12180
X9300Y12020
X8260Y11220
X7540Y11860
X5460Y11860
X7860Y9318
X7220Y8980
X10340Y4660
X10820Y3940
X11620Y5460
X13380Y7460
X12420Y9620
X8820Y14180
X11700Y16740
X15220Y16020
T02
X14369Y12081
X14369Y11081
X14369Y10081
X14369Y9081
X14369Y8081
T03
X2680Y1690
X2680Y4690
X2680Y15690
X2680Y18690
X17369Y18640
X17369Y15640
X17369Y4640
X17369Y1640
M30
