G75*
G70*
%OFA0B0*%
%FSLAX24Y24*%
%IPPOS*%
%LPD*%
%AMOC8*
5,1,8,0,0,1.08239X$1,22.5*
%
%ADD10C,0.0000*%
%ADD11C,0.0160*%
%ADD12R,0.0630X0.0709*%
%ADD13R,0.0709X0.0630*%
%ADD14R,0.0630X0.0710*%
%ADD15R,0.0640X0.0640*%
%ADD16OC8,0.0640*%
%ADD17C,0.1005*%
%ADD18R,0.0320X0.0660*%
%ADD19R,0.0394X0.0551*%
%ADD20R,0.0256X0.0787*%
%ADD21R,0.0787X0.0256*%
%ADD22C,0.0200*%
%ADD23C,0.0238*%
%ADD24C,0.0240*%
D10*
X000180Y000140D02*
X000180Y020500D01*
X000180Y020510D01*
X019922Y020510D01*
X019922Y000140D01*
X000180Y000140D01*
D11*
X000180Y000180D02*
X019940Y000180D01*
X019940Y020500D01*
X000180Y020500D01*
X000180Y000180D01*
D12*
X013464Y013390D03*
X014567Y013390D03*
D13*
X005560Y008421D03*
X005560Y007319D03*
D14*
X013450Y014440D03*
X014570Y014440D03*
D15*
X014369Y012081D03*
D16*
X014369Y011081D03*
X014369Y010081D03*
X014369Y009081D03*
X014369Y008081D03*
D17*
X017369Y004640D03*
X017369Y001640D03*
X017369Y015640D03*
X017369Y018640D03*
X002680Y018690D03*
X002680Y015690D03*
X002680Y004690D03*
X002680Y001690D03*
D18*
X009327Y002850D03*
X009827Y002850D03*
X010327Y002850D03*
X010827Y002850D03*
X010827Y005350D03*
X010327Y005350D03*
X009827Y005350D03*
X009327Y005350D03*
D19*
X008154Y003747D03*
X007406Y003747D03*
X007780Y004613D03*
D20*
X008246Y013060D03*
X008777Y013060D03*
X009289Y013060D03*
X009781Y013060D03*
X010273Y013060D03*
X010785Y013060D03*
X011277Y013060D03*
X011769Y013060D03*
D21*
X012324Y017584D03*
D22*
X011700Y016740D02*
X011700Y014900D01*
X008246Y014900D01*
X008246Y013060D01*
X008260Y013060D01*
X008260Y011220D01*
X007540Y011860D02*
X005460Y011860D01*
X005560Y009318D02*
X007860Y009318D01*
X007220Y008980D02*
X006260Y008980D01*
X006260Y007319D01*
X005560Y007319D01*
X005560Y006500D01*
X008580Y006500D01*
X007780Y006020D02*
X009380Y006020D01*
X009380Y005350D01*
X009327Y005350D01*
X008580Y005460D02*
X008580Y003747D01*
X008154Y003747D01*
X008154Y002420D01*
X008154Y002260D01*
X006580Y002260D01*
X008154Y002260D02*
X009300Y002260D01*
X009827Y002260D01*
X010327Y002260D01*
X010327Y002850D01*
X010820Y002850D02*
X010827Y002850D01*
X010820Y002850D02*
X010820Y003940D01*
X010340Y004660D02*
X010327Y004727D01*
X010327Y005350D01*
X010340Y005300D02*
X010260Y005300D01*
X010260Y007380D01*
X010820Y007140D02*
X010827Y007133D01*
X010827Y005350D01*
X010820Y005460D02*
X011620Y005460D01*
X013380Y007460D02*
X013380Y009620D01*
X012420Y009620D01*
X011460Y010100D02*
X010500Y008660D01*
X009620Y008660D01*
X009300Y008980D02*
X010180Y008980D01*
X011620Y011060D01*
X014340Y011060D01*
X014369Y010100D02*
X011460Y010100D01*
X010340Y009940D02*
X011940Y012180D01*
X012820Y013380D01*
X013464Y013380D01*
X013464Y013390D01*
X012820Y013380D02*
X012820Y014440D01*
X013450Y014440D01*
X014570Y014440D02*
X014820Y014440D01*
X015220Y014440D01*
X015220Y016020D01*
X015220Y013380D02*
X014567Y013380D01*
X014567Y013390D01*
X015220Y013380D02*
X015220Y012081D01*
X014369Y012081D01*
X014369Y010100D02*
X014369Y010081D01*
X011260Y012100D02*
X011277Y013060D01*
X010820Y013060D02*
X010820Y012100D01*
X009780Y012180D02*
X009781Y013060D01*
X010273Y013060D02*
X010273Y010580D01*
X010300Y010580D01*
X010340Y009940D02*
X009940Y009940D01*
X009940Y009300D01*
X007780Y006020D02*
X007780Y004613D01*
X007380Y003860D02*
X007380Y003780D01*
X007380Y003860D02*
X006740Y003860D01*
X008154Y002420D02*
X008154Y002260D01*
X009300Y002260D02*
X009300Y002900D01*
X009827Y002850D02*
X009827Y002260D01*
X004820Y005860D02*
X004820Y008421D01*
X005560Y008421D01*
X005560Y009318D01*
X008777Y013060D02*
X008820Y013060D01*
X008820Y014180D01*
D23*
X008820Y014180D03*
X009300Y012020D03*
X009780Y012180D03*
X010820Y012100D03*
X011260Y012100D03*
X010300Y010580D03*
X009940Y009300D03*
X009620Y008660D03*
X009300Y008980D03*
X007860Y009318D03*
X007220Y008980D03*
X008260Y011220D03*
X007540Y011860D03*
X005460Y011860D03*
X010260Y007380D03*
X010820Y007140D03*
X011620Y005460D03*
X010340Y004660D03*
X010820Y003940D03*
X008580Y005460D03*
X008580Y006500D03*
X006740Y003860D03*
X006580Y002260D03*
X004820Y005860D03*
X012420Y009620D03*
X013380Y007460D03*
X015220Y016020D03*
X011700Y016740D03*
D24*
X009300Y013060D02*
X009300Y012020D01*
M02*
